<?xml version="1.0" encoding="UTF-8" standalone="no"?>
<svg
   xmlns:dc="http://purl.org/dc/elements/1.1/"
   xmlns:cc="http://creativecommons.org/ns#"
   xmlns:rdf="http://www.w3.org/1999/02/22-rdf-syntax-ns#"
   xmlns:svg="http://www.w3.org/2000/svg"
   xmlns="http://www.w3.org/2000/svg"
   version="1.1"
   height="72pt"
   width="72pt"
   id="svg582">
  <metadata
     id="metadata3770">
    <rdf:RDF>
      <cc:Work
         rdf:about="">
        <dc:format>image/svg+xml</dc:format>
        <dc:type
           rdf:resource="http://purl.org/dc/dcmitype/StillImage" />
        <dc:title></dc:title>
      </cc:Work>
    </rdf:RDF>
  </metadata>
  <defs
     id="defs584" />
  <circle
     r="39.009346"
     cy="56.217022"
     cx="39.776791"
     id="path585"
     style="font-size:12px;fill:#000000;fill-opacity:1;fill-rule:evenodd;stroke:none;stroke-width:0.86841953pt;stroke-opacity:1" />
  <circle
     r="34.128044"
     cy="56.599316"
     cx="40.016975"
     id="path586"
     style="font-size:12px;fill:#ff1500;fill-opacity:1;fill-rule:evenodd;stroke:none;stroke-width:0.75975287pt;stroke-opacity:1" />
  <path
     id="path590"
     d="m 14.450193,49.813994 -0.05866,12.713483 50.853933,0.234651 0.05866,-12.713483 z"
     style="font-size:12px;fill:#ffffff;fill-opacity:1;fill-rule:evenodd;stroke:none;stroke-width:0.81035158pt" />
  <path
     id="path582"
     d="m 74.145021,56.599317 c 0,2.354835 -0.238897,4.654212 -0.69376,6.875201 -0.454862,2.220989 -1.125692,4.36359 -1.989558,6.404875 -0.863866,2.041283 -1.920769,3.981249 -3.147779,5.796968 -1.22701,1.815718 -2.624127,3.50719 -4.168421,5.051483 -1.544293,1.544294 -3.235765,2.941412 -5.051483,4.168422 -1.815719,1.227009 -3.755685,2.283912 -5.796969,3.147778 -2.041284,0.863866 -4.183885,1.534696 -6.404874,1.989559 -2.220989,0.454862 -4.520366,0.693759 -6.875201,0.693759 -2.354835,0 -4.654212,-0.238897 -6.875201,-0.693759 -2.22099,-0.454863 -4.363591,-1.125693 -6.404874,-1.989559 -2.041284,-0.863866 -7.95899,-3.505626 -5.796969,-3.147778 65.050898,10.734466 46.146982,-49.189711 47.373992,-47.373993 1.22701,1.815719 2.283913,3.755685 3.147779,5.796969 0.863866,2.041284 1.534696,4.183885 1.989558,6.404874 0.454863,2.220989 0.69376,4.520366 0.69376,6.875201 z"
     style="font-size:12px;fill:#cb0000;fill-opacity:1;fill-rule:evenodd;stroke-width:0.75975287pt" />
  <path
     id="path583"
     d="m 5.2983809,57.758275 c -0.1451167,-2.350359 -0.048373,-4.660087 0.2687574,-6.904886 0.3171296,-2.244799 0.854647,-4.424668 1.5910772,-6.515309 0.7364302,-2.090638 1.6717736,-4.092049 2.7845581,-5.979931 1.1127844,-1.887882 2.4030094,-3.662236 3.8492014,-5.298761 1.446191,-1.636526 3.048351,-3.135225 4.785004,-4.471796 1.736654,-1.336572 3.607801,-2.511016 5.591969,-3.499033 1.984169,-0.988018 4.081357,-1.789611 6.270095,-2.380477 2.188737,-0.590866 4.469022,-0.971008 6.819381,-1.116124 2.350359,-0.145116 4.660088,-0.04837 6.904887,0.268757 2.244799,0.31713 4.424667,0.854647 6.515307,1.591077 2.09064,0.736431 8.283616,3.973195 6.176022,3.372828 C 4.2077942,11.883539 7.0053713,66.766393 6.4145051,64.577656 5.8236389,62.388919 5.4434976,60.108635 5.2983809,57.758275 Z"
     style="font-size:12px;fill:#ffffff;fill-opacity:1;fill-rule:evenodd;stroke-width:0.88740107pt" />
  <path
     id="path577"
     d="m 47.500245,63.577947 12.874864,7.180817 c 3.218798,-0.673195 12.185247,-4.03917 15.863827,-6.507622 -1.379454,-1.795258 -1.839235,-5.161125 -2.758908,-7.629578 3.67858,-0.897521 24.60033,-14.137199 18.85268,-33.211089 C 76.468991,-12.493287 36.924398,11.966216 36.694452,13.9858 c -0.229835,2.019563 5.517925,11.6688 7.127324,14.137146 l 10.115956,4.48793 6.667432,-3.814735 C 55.08735,38.894064 47.040464,41.81117 45.20112,44.055189 c -0.919563,0.448761 2.529071,20.195953 2.299125,19.522758 z"
     style="fill:#000000;fill-opacity:0.3;fill-rule:evenodd;stroke:none;stroke-width:1.08435819pt;stroke-linecap:butt;stroke-linejoin:miter;stroke-opacity:1" />
  <ellipse
     id="path575"
     style="fill:#000000;fill-opacity:0.3;fill-rule:evenodd;stroke:none;stroke-width:1.23936787pt;stroke-linecap:butt;stroke-linejoin:miter;stroke-opacity:1"
     cx="67.407021"
     cy="75.008049"
     rx="14.645478"
     ry="13.770916" />
  <ellipse
     ry="12.882225"
     rx="13.16432"
     cy="73.823135"
     cx="65.481514"
     id="path558"
     style="fill:#002c00;fill-opacity:1;fill-rule:evenodd;stroke:none;stroke-width:1.13647977pt;stroke-linecap:butt;stroke-linejoin:miter;stroke-opacity:1" />
  <path
     id="path556"
     d="m 46.242626,58.427345 11.7301,6.703 c 2.9326,-0.6284 11.1018,-3.7704 14.4533,-6.0746 -1.2568,-1.6758 -1.6757,-4.8177 -2.5136,-7.1219 3.3515,-0.8378 22.413,-13.1965 17.1764,-31.0012 -14.4532,-33.5147 -50.4817,-10.682749 -50.6912,-8.797549 -0.2094,1.885179 5.0273,10.892349 6.4936,13.196449 l 9.2165,4.1893 6.0746,-3.5609 c -5.0272,9.426 -12.3586,12.149 -14.0344,14.2437 -0.8378,0.4189 2.3042,18.8521 2.0947,18.2237 z"
     style="fill:#002c00;fill-opacity:1;fill-rule:evenodd;stroke:none;stroke-width:1.00000003pt;stroke-linecap:butt;stroke-linejoin:miter;stroke-opacity:1" />
  <path
     id="path553"
     d="m 50.222526,55.913745 9.2165,-3.5609 8.1692,5.0271 -9.426,3.3515 z"
     style="fill:#007900;fill-opacity:1;fill-rule:evenodd;stroke:none;stroke-width:1.00000003pt;stroke-linecap:butt;stroke-linejoin:miter;stroke-opacity:1" />
  <path
     id="path554"
     d="m 59.439026,52.352745 c 0,0 7.3313,5.4462 7.5408,5.4462 0.2095,0 -1.6757,-7.7503 -1.6757,-7.7503 35.190394,-23.0414 8.3787,-38.123009 6.0746,-40.217679 10.0545,18.642579 -7.7503,33.095879 -13.1965,37.285179 -0.4189,3.3515 1.4663,5.8651 1.4663,5.8651 z"
     style="fill:#007900;fill-opacity:1;fill-rule:evenodd;stroke:none;stroke-width:1.00000003pt;stroke-linecap:butt;stroke-linejoin:miter;stroke-opacity:1" />
  <path
     id="path557"
     d="m 44.357426,20.932645 c 2.9326,2.0948 8.7976,4.1894 8.7976,4.1894 l 10.4734,-4.6083 c -2.5136,-3.7704 -10.8923,-3.142 -19.271,0.4189 z"
     style="fill:#007900;fill-opacity:1;fill-rule:evenodd;stroke:none;stroke-width:1.00000003pt;stroke-linecap:butt;stroke-linejoin:miter;stroke-opacity:1" />
  <path
     id="path562"
     d="m 75.260661,74.481381 c 0,4.98287 -4.001903,9.026927 -8.932788,9.026927 -4.931085,0 -8.932988,-4.044057 -8.932988,-9.026927 0,-4.98287 11.148274,-1.942438 8.932988,-9.026924 4.930885,0 8.932788,4.044054 8.932788,9.026924 z"
     style="font-size:12px;fill:#007900;fill-opacity:1;fill-rule:evenodd;stroke-width:1.04630819pt" />
  <path
     id="path561"
     d="m 71.875574,73.164969 c 0,4.671424 -3.664898,8.462768 -8.180605,8.462768 -4.515804,0 -8.180703,-3.791344 -8.180703,-8.462768 0,-4.671424 3.664899,-8.462768 8.180703,-8.462768 4.515707,0 8.180605,3.791344 8.180605,8.462768 z"
     style="font-size:12px;fill:#00ff00;fill-rule:evenodd;stroke-width:1.04677784pt" />
  <path
     id="path552"
     d="m 47.708926,42.088945 2.3041,14.2437 9.426,-3.3515 -1.0473,-5.865 c 0,0 24.0887,-14.6627 17.5952,-31.6296 -6.4934,-10.473332 -18.2236,-12.149062 -34.3526,-1.0473 2.0947,3.3515 3.7704,7.9598 4.6083,7.9598 7.1218,-3.9799 17.5952,-6.4935 18.2237,0.4189 0.6284,3.142 -12.5681,18.852 -16.7574,19.271 z"
     style="fill:#00ff00;fill-opacity:1;fill-rule:evenodd;stroke:none;stroke-width:1.00000003pt;stroke-linecap:butt;stroke-linejoin:miter;stroke-opacity:1" />
</svg>
