<?xml version="1.0" encoding="UTF-8" standalone="no"?>
<svg
   xmlns:dc="http://purl.org/dc/elements/1.1/"
   xmlns:cc="http://creativecommons.org/ns#"
   xmlns:rdf="http://www.w3.org/1999/02/22-rdf-syntax-ns#"
   xmlns:svg="http://www.w3.org/2000/svg"
   xmlns="http://www.w3.org/2000/svg"
   version="1.1"
   height="96"
   width="96"
   id="svg582">
  <metadata
     id="metadata3770">
    <rdf:RDF>
      <cc:Work
         rdf:about="">
        <dc:format>image/svg+xml</dc:format>
        <dc:type
           rdf:resource="http://purl.org/dc/dcmitype/StillImage" />
        <dc:title></dc:title>
      </cc:Work>
    </rdf:RDF>
  </metadata>
  <defs
     id="defs584" />
  <circle
     r="36.697987"
     cy="54.63929"
     cx="41.000965"
     id="path585"
     style="font-size:12px;fill:#000000;fill-opacity:1;fill-rule:evenodd;stroke:none;stroke-width:0.81696439pt;stroke-opacity:1" />
  <circle
     r="32.105907"
     cy="54.998936"
     cx="41.226917"
     id="path586"
     style="font-size:12px;fill:#ff1500;fill-opacity:1;fill-rule:evenodd;stroke:none;stroke-width:0.71473642pt;stroke-opacity:1" />
  <path
     id="path590"
     d="m 17.175004,48.615656 -0.05518,11.96019 47.840764,0.220747 0.05518,-11.96019 z"
     style="font-size:12px;fill:#ffffff;fill-opacity:1;fill-rule:evenodd;stroke:none;stroke-width:0.76233709pt" />
  <path
     id="path582"
     d="m 73.332827,54.998938 c 0,2.215308 -0.224743,4.378443 -0.652654,6.467835 -0.427911,2.089393 -1.058994,4.105041 -1.871674,6.025377 -0.812681,1.920334 -1.806961,3.745354 -2.961268,5.453489 -1.154309,1.708134 -2.468644,3.299384 -3.921437,4.752176 -1.452791,1.452792 -3.044041,2.767129 -4.752175,3.921436 -1.708134,1.154308 -3.533155,2.148588 -5.45349,2.961268 -1.920335,0.81268 -3.935983,1.443763 -6.025375,1.871675 -2.089393,0.427911 -4.252528,0.652653 -6.467836,0.652653 -2.215307,0 -4.378443,-0.224742 -6.467835,-0.652653 -2.089393,-0.427912 -4.105042,-1.058995 -6.025376,-1.871675 -1.920335,-0.81268 -7.487408,-3.297913 -5.45349,-2.961268 61.196537,10.098434 43.412705,-46.275148 44.567014,-44.567014 1.154307,1.708135 2.148587,3.533155 2.961268,5.45349 0.81268,1.920335 1.443763,3.935984 1.871674,6.025376 0.427911,2.089392 0.652654,4.252528 0.652654,6.467835 z"
     style="font-size:12px;fill:#cb0000;fill-opacity:1;fill-rule:evenodd;stroke-width:0.71473642pt" />
  <path
     id="path583"
     d="m 8.5654503,56.089226 c -0.1365183,-2.211097 -0.045507,-4.38397 0.2528332,-6.495761 0.2983392,-2.111791 0.8040078,-4.1625 1.4968035,-6.129268 0.692795,-1.966764 1.572718,-3.849588 2.619569,-5.625611 1.046851,-1.776022 2.260628,-3.445243 3.621131,-4.984802 1.360502,-1.53956 2.867731,-2.949458 4.501485,-4.206835 1.633755,-1.257378 3.394033,-2.362234 5.260636,-3.29171 1.866604,-0.929477 3.839532,-1.683575 5.898583,-2.239431 2.059051,-0.555856 4.204227,-0.913474 6.415323,-1.049991 2.211097,-0.136518 4.383971,-0.04551 6.495763,0.252832 2.111791,0.29834 4.162498,0.804008 6.129265,1.496803 1.966767,0.692796 7.7928,3.737778 5.810084,3.172984 C 7.5394825,12.932635 10.171299,64.5636 9.6154425,62.504549 9.059586,60.445497 8.7019687,58.300324 8.5654503,56.089226 Z"
     style="font-size:12px;fill:#ffffff;fill-opacity:1;fill-rule:evenodd;stroke-width:0.83482128pt" />
  <path
     id="path577"
     d="m 48.266792,61.564074 12.112009,6.755343 C 63.406881,67.68611 71.842055,64.519574 75.302674,62.197381 74.004955,60.508495 73.572416,57.34206 72.707236,55.019867 76.167854,54.175526 95.84996,41.720318 90.442866,23.776583 75.519098,-9.9998284 38.31758,13.010413 38.101258,14.910335 c -0.216216,1.8999 5.19098,10.977406 6.70502,13.299499 l 9.516571,4.222014 6.272377,-3.588707 c -5.190876,9.499606 -12.760972,12.24387 -14.491332,14.354927 -0.865078,0.422171 2.379219,18.999313 2.162898,18.366006 z"
     style="fill:#000000;fill-opacity:0.3;fill-rule:evenodd;stroke:none;stroke-width:1.02010846pt;stroke-linecap:butt;stroke-linejoin:miter;stroke-opacity:1" />
  <ellipse
     id="path575"
     style="fill:#000000;fill-opacity:0.3;fill-rule:evenodd;stroke:none;stroke-width:1.16593337pt;stroke-linecap:butt;stroke-linejoin:miter;stroke-opacity:1"
     cx="66.994057"
     cy="72.316933"
     rx="13.777713"
     ry="12.954969" />
  <ellipse
     ry="12.118935"
     rx="12.384315"
     cy="71.202225"
     cx="65.18264"
     id="path558"
     style="fill:#002c00;fill-opacity:1;fill-rule:evenodd;stroke:none;stroke-width:1.06914175pt;stroke-linecap:butt;stroke-linejoin:miter;stroke-opacity:1" />
  <path
     id="path556"
     d="m 47.083689,56.718653 11.035075,6.305838 C 60.877603,62.433324 68.562765,59.477492 71.715684,57.309819 70.533351,55.733313 70.139272,52.777575 69.351019,50.609902 72.503938,49.821743 90.436016,38.195314 85.509692,21.445569 71.912866,-10.083336 38.019106,11.395788 37.82202,13.169288 c -0.196993,1.773479 4.729425,10.246961 6.108844,12.41454 l 8.670409,3.941078 5.714671,-3.349912 c -4.729331,8.867495 -11.626334,11.429154 -13.202841,13.39974 -0.788159,0.394079 2.167673,17.735085 1.970586,17.143919 z"
     style="fill:#002c00;fill-opacity:1;fill-rule:evenodd;stroke:none;stroke-width:0.94074851pt;stroke-linecap:butt;stroke-linejoin:miter;stroke-opacity:1" />
  <path
     id="path553"
     d="m 50.827774,54.353987 8.670409,-3.349911 7.685163,4.729237 -8.867496,3.152919 z"
     style="fill:#007900;fill-opacity:1;fill-rule:evenodd;stroke:none;stroke-width:0.94074851pt;stroke-linecap:butt;stroke-linejoin:miter;stroke-opacity:1" />
  <path
     id="path554"
     d="m 59.498183,51.003981 c 0,0 6.896909,5.123506 7.093997,5.123506 0.197086,0 -1.576413,-7.291084 -1.576413,-7.291084 33.105307,-21.676163 7.88225,-35.864165 5.714671,-37.834722 9.458756,17.537978 -7.291083,31.134899 -12.414588,35.075977 -0.394079,3.152918 1.37942,5.517584 1.37942,5.517584 z"
     style="fill:#007900;fill-opacity:1;fill-rule:evenodd;stroke:none;stroke-width:0.94074851pt;stroke-linecap:butt;stroke-linejoin:miter;stroke-opacity:1" />
  <path
     id="path557"
     d="m 45.31019,21.445569 c 2.758839,1.97068 8.276329,3.941171 8.276329,3.941171 l 9.852836,-4.335251 C 61.074689,17.504491 53.19244,18.095657 45.31019,21.445569 Z"
     style="fill:#007900;fill-opacity:1;fill-rule:evenodd;stroke:none;stroke-width:0.94074851pt;stroke-linecap:butt;stroke-linejoin:miter;stroke-opacity:1" />
  <path
     id="path562"
     d="m 74.382363,71.821463 c 0,4.687628 -3.764785,8.492069 -8.403507,8.492069 -4.638911,0 -8.403696,-3.804441 -8.403696,-8.492069 0,-4.687627 10.487722,-1.827345 8.403696,-8.492065 4.638722,0 8.403507,3.804438 8.403507,8.492065 z"
     style="font-size:12px;fill:#007900;fill-opacity:1;fill-rule:evenodd;stroke-width:0.98431286pt" />
  <path
     id="path561"
     d="m 71.197847,70.583051 c 0,4.394635 -3.447748,7.961337 -7.695892,7.961337 -4.248236,0 -7.695985,-3.566702 -7.695985,-7.961337 0,-4.394636 3.447749,-7.961336 7.695985,-7.961336 4.248144,0 7.695892,3.5667 7.695892,7.961336 z"
     style="font-size:12px;fill:#00ff00;fill-rule:evenodd;stroke-width:0.9847548pt" />
  <path
     id="path552"
     d="m 48.463109,41.348327 2.167579,13.399739 8.867495,-3.152918 -0.985246,-5.51749 c 0,0 22.66141,-13.793914 16.552659,-29.7555 C 68.956939,6.4693868 57.921771,4.8929462 42.748437,15.336912 c 1.970587,3.152919 3.546999,7.48817 4.335252,7.48817 6.699823,-3.744085 16.552658,-6.108751 17.143919,0.39408 0.591167,2.955832 -11.823422,17.734991 -15.764499,18.129165 z"
     style="fill:#00ff00;fill-opacity:1;fill-rule:evenodd;stroke:none;stroke-width:0.94074851pt;stroke-linecap:butt;stroke-linejoin:miter;stroke-opacity:1" />
</svg>
